<svg width="20" height="27" viewBox="0 0 20 27" fill="none" xmlns="http://www.w3.org/2000/svg">
<path d="M2.5 0C1.11979 0 0 1.11979 0 2.5V24.1667C0 25.5469 1.11979 26.6667 2.5 26.6667H7.5V22.5C7.5 21.1198 8.61979 20 10 20C11.3802 20 12.5 21.1198 12.5 22.5V26.6667H17.5C18.8802 26.6667 20 25.5469 20 24.1667V2.5C20 1.11979 18.8802 0 17.5 0H2.5ZM3.33333 12.5C3.33333 12.0417 3.70833 11.6667 4.16667 11.6667H5.83333C6.29167 11.6667 6.66667 12.0417 6.66667 12.5V14.1667C6.66667 14.625 6.29167 15 5.83333 15H4.16667C3.70833 15 3.33333 14.625 3.33333 14.1667V12.5ZM9.16667 11.6667H10.8333C11.2917 11.6667 11.6667 12.0417 11.6667 12.5V14.1667C11.6667 14.625 11.2917 15 10.8333 15H9.16667C8.70833 15 8.33333 14.625 8.33333 14.1667V12.5C8.33333 12.0417 8.70833 11.6667 9.16667 11.6667ZM13.3333 12.5C13.3333 12.0417 13.7083 11.6667 14.1667 11.6667H15.8333C16.2917 11.6667 16.6667 12.0417 16.6667 12.5V14.1667C16.6667 14.625 16.2917 15 15.8333 15H14.1667C13.7083 15 13.3333 14.625 13.3333 14.1667V12.5ZM4.16667 5H5.83333C6.29167 5 6.66667 5.375 6.66667 5.83333V7.5C6.66667 7.95833 6.29167 8.33333 5.83333 8.33333H4.16667C3.70833 8.33333 3.33333 7.95833 3.33333 7.5V5.83333C3.33333 5.375 3.70833 5 4.16667 5ZM8.33333 5.83333C8.33333 5.375 8.70833 5 9.16667 5H10.8333C11.2917 5 11.6667 5.375 11.6667 5.83333V7.5C11.6667 7.95833 11.2917 8.33333 10.8333 8.33333H9.16667C8.70833 8.33333 8.33333 7.95833 8.33333 7.5V5.83333ZM14.1667 5H15.8333C16.2917 5 16.6667 5.375 16.6667 5.83333V7.5C16.6667 7.95833 16.2917 8.33333 15.8333 8.33333H14.1667C13.7083 8.33333 13.3333 7.95833 13.3333 7.5V5.83333C13.3333 5.375 13.7083 5 14.1667 5Z" fill="white"/>
</svg>
