<svg width="18" height="16" viewBox="0 0 18 16" fill="none" xmlns="http://www.w3.org/2000/svg">
<path d="M16.2111 4.38872C16.2221 4.54622 16.2221 4.70374 16.2221 4.86124C16.2221 9.66496 12.6339 15.2 6.07577 15.2C4.05532 15.2 2.17843 14.6037 0.599609 13.5688C0.886676 13.6025 1.16266 13.6137 1.46078 13.6137C3.12789 13.6137 4.66256 13.04 5.88807 12.0613C4.3203 12.0275 3.00646 10.9812 2.55379 9.54123C2.77462 9.57496 2.99542 9.59747 3.22729 9.59747C3.54746 9.59747 3.86766 9.55245 4.16574 9.47374C2.53173 9.13622 1.30618 7.67373 1.30618 5.90748V5.8625C1.78091 6.1325 2.33299 6.30125 2.9181 6.32372C1.95756 5.67121 1.32827 4.55747 1.32827 3.29746C1.32827 2.62247 1.50489 2.00372 1.81405 1.46372C3.56952 3.66872 6.20824 5.1087 9.1671 5.26622C9.11191 4.99622 9.07878 4.715 9.07878 4.43374C9.07878 2.43122 10.6686 0.799988 12.6449 0.799988C13.6717 0.799988 14.5991 1.23874 15.2505 1.94749C16.0564 1.78999 16.8293 1.48623 17.5138 1.06999C17.2488 1.91376 16.6858 2.62251 15.9461 3.07248C16.6637 2.99377 17.3593 2.79122 17.9996 2.51C17.5139 3.22997 16.9066 3.87119 16.2111 4.38872Z" fill="white"/>
</svg>
