<svg width="13" height="13" viewBox="0 0 13 13" fill="none" xmlns="http://www.w3.org/2000/svg">
<path d="M2.97395 2.92279C2.97395 2.28584 3.49072 1.76907 4.12767 1.76907C4.76462 1.76907 5.28139 2.28584 5.28139 2.92279V6.87669C5.28139 7.29251 5.45204 7.64343 5.64914 7.89821C5.90151 8.2251 6.05053 8.6313 6.05053 9.07597C6.05053 10.1384 5.19005 10.9988 4.12767 10.9988C3.06528 10.9988 2.2048 10.1384 2.2048 9.07597C2.2048 8.6313 2.35382 8.2251 2.6062 7.90061C2.80329 7.64343 2.97395 7.29251 2.97395 6.87669V2.92279ZM4.12767 0.230774C2.63985 0.230774 1.43565 1.43497 1.43565 2.92279V6.87428C1.43565 6.87669 1.43325 6.88149 1.43084 6.8887C1.42604 6.90313 1.41162 6.92716 1.38998 6.956C0.935705 7.54248 0.666504 8.27798 0.666504 9.07597C0.666504 10.9868 2.21682 12.5371 4.12767 12.5371C6.03852 12.5371 7.58883 10.9868 7.58883 9.07597C7.58883 8.27798 7.31722 7.54248 6.86535 6.95841C6.84372 6.92957 6.8293 6.90553 6.82449 6.89111C6.82209 6.8839 6.81968 6.87909 6.81968 6.87669V2.92279C6.81968 1.43497 5.61549 0.230774 4.12767 0.230774ZM4.12767 10.2297C4.76462 10.2297 5.28139 9.71292 5.28139 9.07597C5.28139 8.57362 4.95931 8.14578 4.51224 7.98714V2.92279C4.51224 2.71127 4.33918 2.53822 4.12767 2.53822C3.91615 2.53822 3.74309 2.71127 3.74309 2.92279V7.98714C3.29603 8.14578 2.97395 8.57362 2.97395 9.07597C2.97395 9.71292 3.49072 10.2297 4.12767 10.2297ZM11.4346 4.07651H12.2037C12.5138 4.07651 12.795 3.88903 12.9152 3.6006C13.0354 3.31217 12.9681 2.98288 12.7493 2.76175L11.211 1.22345C10.9106 0.923006 10.4227 0.923006 10.1222 1.22345L8.58391 2.76175C8.36278 2.98288 8.29789 3.31217 8.41807 3.6006C8.53824 3.88903 8.81706 4.07651 9.12953 4.07651H9.89867V10.9988C9.89867 11.4243 10.2424 11.768 10.6678 11.768C11.0933 11.768 11.437 11.4243 11.437 10.9988V4.07651H11.4346Z" fill="white"/>
</svg>
