<svg width="13" height="13" viewBox="0 0 13 13" fill="none" xmlns="http://www.w3.org/2000/svg">
<path d="M6.88285 0.0512695C6.84198 0.0512695 6.80112 0.0536734 6.76025 0.0632888C4.70497 0.459923 3.44535 2.5104 3.80352 4.60175C3.87323 5.0104 4.00545 5.39262 4.18573 5.74117L1.43573 5.43588H1.37323C0.983812 5.43588 0.666504 5.75319 0.666504 6.14262C0.666504 6.18348 0.668908 6.22435 0.678523 6.26521C1.07516 8.3205 3.12564 9.58012 5.21698 9.22194C5.62564 9.15223 6.00785 9.02002 6.35641 8.83973L6.05112 11.5897V11.6522C6.05112 12.0417 6.36843 12.359 6.75785 12.359C6.79872 12.359 6.83958 12.3566 6.88045 12.3469C8.93573 11.9503 10.1954 9.89983 9.83718 7.80848C9.76747 7.39983 9.63525 7.01762 9.45497 6.66906L12.205 6.97435H12.2675C12.6569 6.97435 12.9742 6.65704 12.9742 6.26762C12.9742 6.22675 12.9718 6.18588 12.9622 6.14502C12.5655 4.08973 10.5151 2.83012 8.42372 3.18829C8.01506 3.258 7.63285 3.39021 7.28429 3.5705L7.58958 0.8205V0.758C7.58958 0.368577 7.27227 0.0512695 6.88285 0.0512695ZM6.82035 6.97435C6.39487 6.97435 6.05112 6.6306 6.05112 6.20512C6.05112 5.77963 6.39487 5.43588 6.82035 5.43588C7.24583 5.43588 7.58958 5.77963 7.58958 6.20512C7.58958 6.6306 7.24583 6.97435 6.82035 6.97435Z" fill="white"/>
</svg>
