<svg width="13" height="19" viewBox="0 0 13 19" fill="none" xmlns="http://www.w3.org/2000/svg">
<path d="M9.61755 13.6923C9.95322 12.574 10.649 11.6205 11.3378 10.6705C11.5197 10.4216 11.7015 10.1727 11.8763 9.92028C12.5686 8.92118 12.9742 7.71174 12.9742 6.40415C12.9742 2.99319 10.219 0.230774 6.82035 0.230774C3.42175 0.230774 0.666504 2.99319 0.666504 6.40065C0.666504 7.70824 1.0721 8.92118 1.76441 9.91677C1.93923 10.1692 2.12105 10.4181 2.30287 10.667C2.99518 11.617 3.69098 12.574 4.02315 13.6888H9.61755V13.6923ZM6.82035 18.1795C8.3658 18.1795 9.61755 16.9245 9.61755 15.375V14.8141H4.02315V15.375C4.02315 16.9245 5.2749 18.1795 6.82035 18.1795ZM4.02315 6.40065C4.02315 6.70914 3.7714 6.96154 3.46371 6.96154C3.15601 6.96154 2.90427 6.70914 2.90427 6.40065C2.90427 4.23067 4.65601 2.47436 6.82035 2.47436C7.12804 2.47436 7.37979 2.72677 7.37979 3.03526C7.37979 3.34375 7.12804 3.59616 6.82035 3.59616C5.2749 3.59616 4.02315 4.85117 4.02315 6.40065Z" fill="white"/>
</svg>
