<svg width="67" height="81" viewBox="0 0 67 81" fill="none" xmlns="http://www.w3.org/2000/svg">
<mask id="mask0_96_781" style="mask-type:alpha" maskUnits="userSpaceOnUse" x="0" y="0" width="67" height="81">
<path d="M33.4494 40.6865C43.9363 40.6865 52.4356 31.7284 52.4356 20.6753C52.4356 9.62223 43.9363 0.664093 33.4494 0.664093C22.9625 0.664093 14.4633 9.62223 14.4633 20.6753C14.4633 31.7284 22.9625 40.6865 33.4494 40.6865ZM26.6708 48.1907C12.0603 48.1907 0.223633 60.6664 0.223633 76.0657C0.223633 78.6296 2.19642 80.7089 4.62902 80.7089H62.2699C64.7025 80.7089 66.6752 78.6296 66.6752 76.0657C66.6752 60.6664 54.8386 48.1907 40.2281 48.1907H26.6708Z" fill="white"/>
</mask>
<g mask="url(#mask0_96_781)">
<circle cx="33.4492" cy="19.8451" r="47.8452" fill="#D9D9D9"/>
</g>
</svg>
