<svg width="15" height="17" viewBox="0 0 15 17" fill="none" xmlns="http://www.w3.org/2000/svg">
<mask id="mask0_118_411" style="mask-type:alpha" maskUnits="userSpaceOnUse" x="0" y="0" width="15" height="17">
<path d="M7.27621 8.52161C9.52868 8.52161 11.3542 6.70062 11.3542 4.45377C11.3542 2.20693 9.52868 0.385933 7.27621 0.385933C5.02373 0.385933 3.19817 2.20693 3.19817 4.45377C3.19817 6.70062 5.02373 8.52161 7.27621 8.52161ZM5.82022 10.047C2.68205 10.047 0.139648 12.5831 0.139648 15.7134C0.139648 16.2346 0.563382 16.6573 1.08588 16.6573H13.4665C13.989 16.6573 14.4128 16.2346 14.4128 15.7134C14.4128 12.5831 11.8704 10.047 8.73219 10.047H5.82022Z" fill="white"/>
</mask>
<g mask="url(#mask0_118_411)">
<circle cx="7.27664" cy="5.95262" r="10.2766" fill="#D9D9D9"/>
</g>
</svg>
