<svg width="20" height="18" viewBox="0 0 20 18" fill="none" xmlns="http://www.w3.org/2000/svg">
<path opacity="0.3" d="M14.2939 11.3208H13.3905L13.0703 11.0429C14.191 9.86964 14.8656 8.34648 14.8656 6.68954C14.8656 2.99485 11.538 0 7.43282 0C3.32762 0 0 2.99485 0 6.68954C0 10.3842 3.32762 13.3791 7.43282 13.3791C9.27387 13.3791 10.9663 12.7719 12.2699 11.7633L12.5786 12.0515V12.8645L18.2962 18L20 16.4666L14.2939 11.3208ZM7.43282 11.3208C4.58548 11.3208 2.28702 9.25214 2.28702 6.68954C2.28702 4.12693 4.58548 2.05832 7.43282 2.05832C10.2802 2.05832 12.5786 4.12693 12.5786 6.68954C12.5786 9.25214 10.2802 11.3208 7.43282 11.3208Z" fill="white"/>
</svg>
