<svg width="13" height="13" viewBox="0 0 13 13" fill="none" xmlns="http://www.w3.org/2000/svg">
<path d="M7.58958 0.944993C7.58958 1.36842 7.93333 1.71051 8.35881 1.71051H9.12804C9.55352 1.71051 9.89727 2.0526 9.89727 2.47603C9.89727 2.89946 9.55352 3.24155 9.12804 3.24155H1.43573C1.01025 3.24155 0.666504 3.58364 0.666504 4.00707C0.666504 4.4305 1.01025 4.77259 1.43573 4.77259H9.12804C10.4021 4.77259 11.4357 3.74392 11.4357 2.47603C11.4357 1.20814 10.4021 0.179474 9.12804 0.179474H8.35881C7.93333 0.179474 7.58958 0.521565 7.58958 0.944993ZM9.12804 9.3657C9.12804 9.78913 9.47179 10.1312 9.89727 10.1312H10.6665C11.9405 10.1312 12.9742 9.10255 12.9742 7.83466C12.9742 6.56677 11.9405 5.53811 10.6665 5.53811H1.43573C1.01025 5.53811 0.666504 5.8802 0.666504 6.30363C0.666504 6.72705 1.01025 7.06914 1.43573 7.06914H10.6665C11.092 7.06914 11.4357 7.41124 11.4357 7.83466C11.4357 8.25809 11.092 8.60018 10.6665 8.60018H9.89727C9.47179 8.60018 9.12804 8.94227 9.12804 9.3657ZM3.74343 12.4278H4.51266C5.7867 12.4278 6.82035 11.3991 6.82035 10.1312C6.82035 8.86333 5.7867 7.83466 4.51266 7.83466H1.43573C1.01025 7.83466 0.666504 8.17675 0.666504 8.60018C0.666504 9.02361 1.01025 9.3657 1.43573 9.3657H4.51266C4.93814 9.3657 5.28189 9.70779 5.28189 10.1312C5.28189 10.5546 4.93814 10.8967 4.51266 10.8967H3.74343C3.31795 10.8967 2.9742 11.2388 2.9742 11.6623C2.9742 12.0857 3.31795 12.4278 3.74343 12.4278Z" fill="white"/>
</svg>
